<?xml version="1.0" standalone="no"?>
<!DOCTYPE svg PUBLIC "-//W3C//DTD SVG 20010904//EN"
 "http://www.w3.org/TR/2001/REC-SVG-20010904/DTD/svg10.dtd">
<svg version="1.0" xmlns="http://www.w3.org/2000/svg"
 width="212.000000pt" height="212.000000pt" viewBox="0 0 212.000000 212.000000"
 preserveAspectRatio="xMidYMid meet">
<metadata>
Created by potrace 1.11, written by Peter Selinger 2001-2013
</metadata>
<g transform="translate(0.000000,212.000000) scale(0.100000,-0.100000)"
fill="#000000" stroke="none">
<path d="M1050 1542 c0 -13 -12 -22 -40 -31 -21 -6 -52 -23 -69 -36 -16 -14
-37 -24 -48 -23 -38 3 -50 -3 -62 -28 -8 -18 -8 -30 -1 -39 7 -9 1 -22 -25
-49 -19 -20 -37 -52 -41 -71 -6 -32 -14 -40 -37 -36 -5 1 -7 -4 -4 -11 2 -7
11 -12 20 -10 11 2 17 -9 22 -36 3 -22 19 -52 39 -74 20 -22 30 -41 26 -48
-21 -33 22 -77 65 -66 16 4 27 -1 41 -19 10 -14 40 -32 65 -40 32 -11 49 -23
54 -38 7 -22 7 -22 14 3 4 16 14 26 30 28 28 4 68 28 93 55 11 12 24 17 37 12
28 -9 72 35 64 64 -4 14 4 30 25 50 16 17 34 47 39 68 5 21 14 38 20 38 22 0
27 16 6 21 -14 4 -23 17 -28 40 -3 19 -19 49 -34 67 -23 25 -27 37 -20 55 16
43 -29 84 -69 63 -15 -8 -24 -6 -38 10 -22 24 -86 59 -109 59 -8 0 -15 6 -15
14 0 8 -4 18 -10 21 -5 3 -10 -2 -10 -13z m55 -81 c13 -1 65 -49 65 -60 0 -5
-15 -12 -32 -15 -44 -8 -49 -9 -75 -1 -16 5 -25 1 -38 -19 -16 -24 -16 -28 -1
-51 17 -25 50 -33 61 -15 12 19 80 47 107 44 107 -11 156 -138 82 -216 l-29
-29 -11 33 c-7 18 -10 49 -7 69 4 30 1 39 -17 52 -20 14 -27 14 -50 2 -17 -9
-31 -10 -41 -4 -18 12 -95 12 -118 0 -9 -5 -22 -7 -28 -3 -16 11 -43 68 -43
92 0 29 29 82 54 100 33 24 53 28 121 21z m-212 -234 c-10 -52 43 -75 87 -37
67 58 185 20 207 -68 8 -33 -12 -94 -41 -121 -47 -44 -125 -44 -172 0 -13 12
-24 25 -24 28 0 14 74 29 97 20 18 -7 28 -4 43 11 24 24 25 43 4 64 -21 21
-40 20 -76 -5 -89 -64 -207 -6 -208 101 0 35 20 74 49 96 13 10 17 6 28 -24 6
-19 9 -49 6 -65z"/>
<path d="M71 799 c-18 -7 -22 -15 -19 -40 3 -33 10 -39 65 -59 52 -20 51 -80
-3 -100 -47 -18 -97 36 -74 80 7 13 6 21 -4 29 -19 16 -40 -37 -31 -77 8 -40
36 -63 84 -69 35 -5 44 -2 71 25 40 40 42 91 4 121 -15 12 -30 21 -35 21 -4 0
-20 5 -35 10 -25 10 -26 12 -11 27 13 14 19 14 32 3 18 -15 30 -8 22 13 -7 19
-37 26 -66 16z"/>
<path d="M753 802 c-12 -2 -25 -12 -28 -23 -11 -33 4 -57 43 -69 63 -20 79
-58 42 -98 -41 -43 -120 0 -99 54 12 32 -2 62 -19 42 -33 -40 -17 -109 29
-134 43 -22 77 -17 110 15 54 54 34 121 -44 146 -18 5 -32 17 -32 25 0 15 7
16 38 5 12 -5 17 -2 17 9 0 19 -28 33 -57 28z"/>
<path d="M1971 793 c-33 -16 -56 -62 -48 -95 3 -11 2 -30 -4 -40 -6 -12 -6
-18 1 -18 5 0 10 -7 10 -15 0 -26 50 -65 82 -65 69 0 107 55 98 144 -4 48 -10
62 -31 78 -33 25 -70 29 -108 11z m76 -98 c11 -8 23 -23 26 -35 7 -26 -28 -70
-55 -70 -54 0 -79 74 -36 104 28 20 38 20 65 1z"/>
<path d="M209 793 c-1 -5 -2 -59 -3 -121 -1 -94 1 -112 14 -110 10 2 15 18 16
56 1 81 44 115 93 75 17 -14 22 -30 23 -75 2 -46 5 -58 18 -58 13 0 16 11 15
59 -1 98 -50 142 -120 108 l-32 -15 2 31 c2 17 1 37 -2 44 -6 14 -22 18 -24 6z"/>
<path d="M610 770 c0 -16 -4 -30 -10 -30 -5 0 -10 -7 -10 -15 0 -8 5 -15 10
-15 6 0 10 -26 10 -59 0 -61 15 -91 46 -91 18 0 18 26 0 33 -8 3 -13 24 -13
60 -1 46 2 56 21 65 l21 11 -23 7 c-14 4 -22 13 -20 23 3 19 -9 41 -23 41 -5
0 -9 -13 -9 -30z"/>
<path d="M1327 786 c-3 -10 -2 -159 2 -208 1 -23 31 -24 31 -1 0 15 1 15 18 0
26 -24 66 -21 99 7 39 34 39 98 0 132 -32 27 -78 31 -97 9 -19 -22 -27 -10
-23 33 3 29 0 39 -11 39 -8 0 -17 -5 -19 -11z m114 -87 c27 -14 39 -49 26 -76
-6 -13 -13 -23 -16 -24 -3 0 -17 -2 -30 -5 -52 -10 -80 57 -41 96 23 23 33 24
61 9z"/>
<path d="M1877 793 c-2 -4 -3 -25 -2 -45 2 -36 2 -37 -19 -23 -43 31 -99 13
-121 -37 -34 -83 52 -162 123 -112 16 11 22 12 20 3 -2 -7 4 -14 13 -16 13 -3
15 12 15 113 -1 80 -5 119 -13 121 -6 2 -13 0 -16 -4z m-36 -94 c53 -28 34
-108 -25 -109 -52 0 -76 75 -34 104 27 19 33 19 59 5z"/>
<path d="M442 720 c-3 -8 -14 -21 -25 -29 -15 -11 -17 -21 -12 -50 12 -72 14
-74 95 -74 65 0 91 15 86 46 -2 12 1 28 6 34 7 9 2 22 -16 44 -14 17 -26 34
-26 38 0 4 -23 8 -51 7 -36 -1 -53 -5 -57 -16z"/>
<path d="M913 725 c-25 -18 -41 -60 -37 -95 8 -55 92 -91 127 -55 13 13 16 13
21 0 3 -8 12 -15 19 -15 11 0 14 20 14 85 0 86 -10 112 -32 81 -11 -14 -14
-15 -25 -1 -16 19 -59 19 -87 0z m84 -30 c32 -23 35 -54 8 -81 -28 -28 -42
-30 -72 -9 -32 23 -35 54 -8 81 28 28 42 30 72 9z"/>
<path d="M1080 648 c0 -72 3 -88 15 -88 12 0 15 14 15 64 0 71 17 99 48 79 13
-7 17 -26 17 -74 1 -49 5 -64 16 -64 10 0 14 16 15 64 2 62 11 80 41 81 20 0
27 -21 28 -85 0 -46 4 -60 16 -63 25 -5 23 130 -2 157 -23 25 -67 28 -76 6 -5
-14 -7 -14 -22 -1 -10 9 -35 14 -63 14 l-48 -1 0 -89z"/>
<path d="M1555 715 c-56 -55 -20 -155 55 -155 16 0 35 7 44 15 18 18 27 19 24
3 -2 -7 4 -13 12 -13 12 0 15 17 16 88 1 76 -1 87 -15 84 -9 -2 -15 -9 -13
-15 3 -16 -6 -15 -24 3 -24 23 -71 18 -99 -10z m92 -20 c32 -23 35 -54 8 -81
-28 -28 -42 -30 -72 -9 -32 23 -35 54 -8 81 28 28 42 30 72 9z"/>
</g>
</svg>
